<?xml version="1.0" standalone="no"?>
<!DOCTYPE svg PUBLIC "-//W3C//DTD SVG 20010904//EN"
 "http://www.w3.org/TR/2001/REC-SVG-20010904/DTD/svg10.dtd">
<svg version="1.0" xmlns="http://www.w3.org/2000/svg"
 width="244.000000pt" height="244.000000pt" viewBox="0 0 244.000000 244.000000"
 preserveAspectRatio="xMidYMid meet">
<metadata>
Created by potrace 1.14, written by Peter Selinger 2001-2017
</metadata>
<g transform="translate(0.000000,244.000000) scale(0.100000,-0.100000)"
fill="#000000" stroke="none">
<path d="M433 2023 c-9 -3 -13 -35 -13 -109 l0 -104 -79 0 c-44 0 -82 -4 -86
-9 -10 -17 -105 -461 -105 -491 l0 -30 70 0 70 0 0 -439 c0 -391 2 -440 16
-445 9 -3 422 -6 919 -6 808 0 905 2 919 16 14 14 16 68 16 445 l0 429 65 0
c49 0 67 4 71 15 10 25 -95 488 -114 503 -9 7 -45 12 -84 12 l-68 0 0 91 c0
128 -1 129 -115 129 -51 0 -100 -3 -109 -6 -13 -5 -16 -25 -16 -110 l0 -104
-565 0 -565 0 0 91 c0 129 0 129 -118 128 -53 0 -103 -3 -109 -6z m167 -128
l0 -85 -65 0 -65 0 0 85 0 85 65 0 65 0 0 -85z m1370 0 l0 -85 -65 0 -65 0 0
85 0 85 65 0 65 0 0 -85z m180 -150 c0 -4 66 -310 85 -392 l5 -23 -297 0 -298
0 -195 196 c-107 107 -203 200 -213 205 -15 9 -51 -21 -232 -195 l-213 -206
-294 2 -294 3 45 208 45 207 928 0 c510 0 928 -2 928 -5z m-530 -487 c0 -15
-10 -18 -63 -18 l-62 0 -130 130 c-71 72 -137 130 -145 130 -8 0 -74 -58 -145
-130 l-130 -130 -62 0 c-55 0 -63 2 -63 19 0 11 80 97 202 216 l201 196 199
-198 c109 -109 198 -206 198 -215z m-273 50 l123 -123 75 -3 75 -4 0 -369 0
-370 -92 3 -93 3 -5 201 -5 201 -29 41 c-35 51 -112 92 -173 92 -81 0 -146
-40 -186 -115 -20 -36 -22 -58 -25 -233 l-4 -192 -94 0 -94 0 0 370 0 370 69
0 68 0 129 125 c71 68 131 124 134 125 3 0 60 -55 127 -122z m-582 -448 l0
-415 -210 0 -210 0 -3 405 c-1 223 0 411 3 418 3 10 51 12 212 10 l208 -3 0
-415z m1335 0 l0 -420 -215 0 -215 0 0 420 0 420 215 0 215 0 0 -420z m-910
-180 l0 -240 -60 0 -60 0 0 195 0 194 32 37 c28 32 58 51 81 53 4 1 7 -107 7
-239z m118 220 c61 -37 72 -80 72 -282 l0 -178 -65 0 -65 0 0 240 c0 262 -2
256 58 220z"/>
<path d="M436 1164 c-22 -21 -23 -226 -2 -243 9 -8 54 -11 132 -9 l119 3 3
126 c3 149 13 139 -140 139 -75 0 -100 -4 -112 -16z m204 -124 l0 -80 -80 0
-80 0 0 80 0 80 80 0 80 0 0 -80z"/>
<path d="M426 788 c-3 -13 -6 -67 -6 -120 0 -128 0 -128 139 -128 81 0 112 4
120 14 8 9 11 54 9 132 l-3 119 -126 3 c-124 3 -127 2 -133 -20z m214 -108 l0
-80 -80 0 -80 0 0 80 0 80 80 0 80 0 0 -80z"/>
<path d="M1768 1169 c-15 -9 -18 -26 -18 -119 0 -59 3 -115 6 -124 5 -13 25
-16 119 -16 62 0 120 3 129 6 13 5 16 26 16 123 0 78 -4 121 -12 129 -15 15
-215 16 -240 1z m200 -126 l-3 -78 -77 -3 -78 -3 0 81 0 80 80 0 81 0 -3 -77z"/>
<path d="M1762 798 c-15 -15 -16 -211 -2 -239 10 -17 22 -19 116 -19 147 0
144 -3 144 130 0 59 -3 115 -6 124 -5 13 -26 16 -123 16 -78 0 -121 -4 -129
-12z m206 -120 l3 -78 -81 0 -80 0 0 80 0 81 78 -3 77 -3 3 -77z"/>
</g>
</svg>
