<svg xmlns="http://www.w3.org/2000/svg" version="1.1" xmlns:xlink="http://www.w3.org/1999/xlink" xmlns:svgjs="http://svgjs.dev/svgjs" width="1500" height="287" viewBox="0 0 1500 287"><g transform="matrix(1,0,0,1,-0.9090909090909918,-0.4035155466766298)"><svg viewBox="0 0 396 76" data-background-color="#ffffff" preserveAspectRatio="xMidYMid meet" height="287" width="1500" xmlns="http://www.w3.org/2000/svg" xmlns:xlink="http://www.w3.org/1999/xlink"><g id="tight-bounds" transform="matrix(1,0,0,1,0.2400000000000091,0.10685429110600353)"><svg viewBox="0 0 395.52 75.78629141778798" height="75.78629141778798" width="395.52"><g><svg viewBox="0 0 582.9184951775561 111.69405073914014" height="75.78629141778798" width="395.52"><g><rect width="6.618606835340049" height="111.69405073914014" x="163.45369243818453" y="0" fill="#2b74bd" opacity="1" stroke-width="0" stroke="transparent" fill-opacity="1" class="rect-qz-0" data-fill-palette-color="primary" rx="1%" id="qz-0" data-palette-color="#2b74bd"></rect></g><g transform="matrix(1,0,0,1,187.39849517755613,0.2778458973610398)"><svg viewBox="0 0 395.52 111.13835894441806" height="111.13835894441806" width="395.52"><g id="textblocktransform"><svg viewBox="0 0 395.52 111.13835894441806" height="111.13835894441806" width="395.52" id="textblock"><g><svg viewBox="0 0 395.52 73.3924494825037" height="73.3924494825037" width="395.52"><g transform="matrix(1,0,0,1,0,0)"><svg width="395.52" viewBox="4 -37.1 202.88 37.65" height="73.3924494825037" data-palette-color="#2b74bd"><path d="M4-33.5L11.1-34.75 10.4-13 11 0 4 0 4.6-12.15 4-33.5ZM32.5-12.65Q32.5-16.1 31.9-17.25 31.3-18.4 29.1-18.4 26.9-18.4 24.1-16.65L24.1-16.65 24.1-13 24.65-1.25 17.95 0 18.55-12.15Q18.35-18.85 17.45-24.15L17.45-24.15 23.5-25.45Q23.85-22.55 24-19.8L24-19.8Q24.75-20.8 25.7-21.78 26.65-22.75 28.7-23.98 30.75-25.2 32.85-25.2 34.95-25.2 36.4-23.85 37.85-22.5 38.25-20.15L38.25-20.15Q42.4-25.2 46.65-25.2L46.65-25.2Q49.3-25.2 50.85-23.43 52.4-21.65 52.4-18.6L52.4-18.6 52.1-13 52.65-1 45.9 0.25 46.5-12.65Q46.5-16.1 45.9-17.25 45.3-18.4 43.15-18.4 41-18.4 38.3-16.75L38.3-16.75 38.1-13 38.65-1 31.9 0.25 32.5-12.65ZM72.65-12.65Q72.65-16.1 72.05-17.25 71.45-18.4 69.25-18.4 67.05-18.4 64.25-16.65L64.25-16.65 64.25-13 64.8-1.25 58.1 0 58.7-12.15Q58.5-18.85 57.6-24.15L57.6-24.15 63.65-25.45Q64-22.55 64.15-19.8L64.15-19.8Q64.9-20.8 65.85-21.78 66.8-22.75 68.85-23.98 70.9-25.2 73-25.2 75.1-25.2 76.55-23.85 78-22.5 78.4-20.15L78.4-20.15Q82.55-25.2 86.8-25.2L86.8-25.2Q89.45-25.2 91-23.43 92.55-21.65 92.55-18.6L92.55-18.6 92.25-13 92.8-1 86.05 0.25 86.65-12.65Q86.65-16.1 86.05-17.25 85.45-18.4 83.3-18.4 81.15-18.4 78.45-16.75L78.45-16.75 78.25-13 78.8-1 72.05 0.25 72.65-12.65ZM96.79-10.45Q96.79-16.85 100.24-21.3 103.69-25.75 108.32-25.75 112.94-25.75 115.52-22.75 118.09-19.75 118.09-14.8L118.09-14.8Q118.09-8.2 114.77-3.83 111.44 0.55 106.39 0.55L106.39 0.55Q102.24 0.55 99.52-2.58 96.79-5.7 96.79-10.45L96.79-10.45ZM112.49-12.2L112.49-12.2Q112.49-19.45 107.54-19.45L107.54-19.45Q102.39-19.45 102.39-12.65L102.39-12.65Q102.39-9.1 103.84-7.1 105.29-5.1 107.67-5.1 110.04-5.1 111.27-6.93 112.49-8.75 112.49-12.2ZM134.14 0.55L134.14 0.55Q128.59 0.55 124.79-4.1 120.99-8.75 120.99-15.5L120.99-15.5Q120.99-23.75 125.57-29.4 130.14-35.05 136.79-35.05L136.79-35.05Q139.39-35.05 141.62-34.52 143.84-34 144.79-33.45L144.79-33.45 145.69-32.9 142.29-25.95Q141.14-26.95 139.04-27.83 136.94-28.7 135.24-28.7L135.24-28.7Q131.79-28.7 129.72-25.85 127.64-23 127.64-17.73 127.64-12.45 129.79-9.08 131.94-5.7 135.64-5.7L135.64-5.7Q138.04-5.7 139.99-7.2 141.94-8.7 142.74-11.2L142.74-11.2 146.89-8.8Q145.24-4.4 141.84-1.93 138.44 0.55 134.14 0.55ZM148.44-10.45Q148.44-16.85 151.89-21.3 155.34-25.75 159.96-25.75 164.59-25.75 167.16-22.75 169.74-19.75 169.74-14.8L169.74-14.8Q169.74-8.2 166.41-3.83 163.09 0.55 158.04 0.55L158.04 0.55Q153.89 0.55 151.16-2.58 148.44-5.7 148.44-10.45L148.44-10.45ZM164.14-12.2L164.14-12.2Q164.14-19.45 159.19-19.45L159.19-19.45Q154.04-19.45 154.04-12.65L154.04-12.65Q154.04-9.1 155.49-7.1 156.94-5.1 159.31-5.1 161.69-5.1 162.91-6.93 164.14-8.75 164.14-12.2ZM174.04-24.2L180.74-25.45 180.14-13 180.69-1.25 173.99 0 174.59-12.15 174.04-24.2ZM173.69-32.77Q173.69-34.45 174.99-35.77 176.29-37.1 177.99-37.1 179.69-37.1 180.59-36.18 181.49-35.25 181.49-33.4 181.49-31.55 180.21-30.23 178.94-28.9 177.26-28.9 175.59-28.9 174.64-30 173.69-31.1 173.69-32.77ZM200.73-12.65Q200.73-16.1 200.13-17.25 199.53-18.4 197.33-18.4 195.13-18.4 192.33-16.65L192.33-16.65 192.33-13 192.88-1.25 186.18 0 186.78-12.15Q186.58-18.85 185.68-24.15L185.68-24.15 191.73-25.45Q192.08-22.55 192.23-19.8L192.23-19.8Q192.98-20.8 193.93-21.78 194.88-22.75 196.93-23.98 198.98-25.2 201.26-25.2 203.53-25.2 205.08-23.43 206.63-21.65 206.63-18.6L206.63-18.6 206.33-13 206.88-1 200.13 0.25 200.73-12.65Z" opacity="1" transform="matrix(1,0,0,1,0,0)" fill="#2b74bd" class="wordmark-text-0" data-fill-palette-color="primary" id="text-0"></path></svg></g></svg></g><g transform="matrix(1,0,0,1,0,90.71864538653523)"><svg viewBox="0 0 375.74399999999997 20.41971355788282" height="20.41971355788282" width="375.74399999999997"><g transform="matrix(1,0,0,1,0,0)"><svg width="375.74399999999997" viewBox="4.32 -36.43 862.4599999999999 46.879999999999995" height="20.41971355788282" data-palette-color="#333333"><path d="M10.06 0L4.32 0 4.32-33.72 24.56-33.72 24.56-28.91 10.06-28.91 10.06-19.07 22.41-19.07 22.41-14.21 10.06-14.21 10.06 0ZM35.67 0L29.95 0 29.95-25.27 35.67-25.27 35.67 0ZM32.86-29.79L32.86-29.79Q31.32-29.79 30.37-30.7 29.42-31.62 29.42-33.13L29.42-33.13Q29.42-34.57 30.37-35.47 31.32-36.38 32.86-36.38L32.86-36.38Q34.4-36.38 35.35-35.47 36.3-34.57 36.3-33.13L36.3-33.13Q36.3-31.62 35.35-30.7 34.4-29.79 32.86-29.79ZM49.04 0L43.33 0 43.33-25.27 48.02-25.27 48.48-21.85 48.6-21.85Q50.34-23.51 52.35-24.71 54.37-25.9 56.95-25.9L56.95-25.9Q60.98-25.9 62.84-23.28 64.69-20.65 64.69-15.87L64.69-15.87 64.69 0 59.03 0 59.03-15.16Q59.03-18.31 58.06-19.67 57.1-21.02 54.95-21.02L54.95-21.02Q53.27-21.02 51.96-20.17 50.65-19.31 49.04-17.72L49.04-17.72 49.04 0ZM80.88 0.61L80.88 0.61Q76.16 0.61 73.34-2.87 70.52-6.35 70.52-12.62L70.52-12.62Q70.52-16.72 72.04-19.7 73.55-22.68 76.01-24.29 78.46-25.9 81.24-25.9L81.24-25.9Q83.37-25.9 84.9-25.15 86.44-24.39 87.93-23.1L87.93-23.1 87.74-27.17 87.74-36.43 93.43-36.43 93.43 0 88.74 0 88.32-2.78 88.15-2.78Q86.71-1.34 84.83-0.37 82.95 0.61 80.88 0.61ZM82.29-4.08L82.29-4.08Q85.2-4.08 87.74-7.01L87.74-7.01 87.74-18.99Q86.37-20.19 85.05-20.7 83.73-21.22 82.41-21.22L82.41-21.22Q79.92-21.22 78.13-18.95 76.34-16.67 76.34-12.65L76.34-12.65Q76.34-8.47 77.9-6.27 79.46-4.08 82.29-4.08ZM118.66 10.45L118.66 10.45Q117.66 10.45 116.88 10.3 116.1 10.16 115.42 9.86L115.42 9.86 116.52 5.54Q117.57 5.86 118.27 5.86L118.27 5.86Q120.3 5.86 121.53 4.59 122.77 3.32 123.43 1.34L123.43 1.34 123.96-0.27 113.95-25.27 119.74-25.27 124.21-12.65Q124.77-10.96 125.33-9.13 125.89-7.3 126.48-5.49L126.48-5.49 126.7-5.49Q127.16-7.25 127.65-9.07 128.14-10.89 128.63-12.65L128.63-12.65 132.53-25.27 138.02-25.27 128.82 1.27Q127.28 5.47 125.01 7.96 122.74 10.45 118.66 10.45ZM152.72 0.61L152.72 0.61Q149.57 0.61 146.85-0.94 144.13-2.49 142.44-5.46 140.76-8.42 140.76-12.62L140.76-12.62Q140.76-16.82 142.44-19.79 144.13-22.75 146.85-24.33 149.57-25.9 152.72-25.9L152.72-25.9Q155.87-25.9 158.6-24.33 161.34-22.75 163.02-19.79 164.71-16.82 164.71-12.62L164.71-12.62Q164.71-8.42 163.02-5.46 161.34-2.49 158.6-0.94 155.87 0.61 152.72 0.61ZM152.72-4L152.72-4Q155.58-4 157.22-6.37 158.87-8.74 158.87-12.62L158.87-12.62Q158.87-16.5 157.22-18.87 155.58-21.24 152.72-21.24L152.72-21.24Q149.86-21.24 148.24-18.87 146.62-16.5 146.62-12.62L146.62-12.62Q146.62-8.74 148.24-6.37 149.86-4 152.72-4ZM178.18 0.61L178.18 0.61Q174.13 0.61 172.27-1.99 170.42-4.59 170.42-9.4L170.42-9.4 170.42-25.27 176.08-25.27 176.08-10.11Q176.08-6.93 177.05-5.6 178.01-4.27 180.16-4.27L180.16-4.27Q181.84-4.27 183.14-5.11 184.43-5.96 185.94-7.89L185.94-7.89 185.94-25.27 191.61-25.27 191.61 0 186.95 0 186.51-3.76 186.34-3.76Q184.65-1.78 182.71-0.59 180.77 0.61 178.18 0.61ZM204.96 0L199.25 0 199.25-25.27 203.94-25.27 204.4-20.78 204.52-20.78Q205.89-23.22 207.78-24.56 209.67-25.9 211.72-25.9L211.72-25.9Q212.65-25.9 213.31-25.77 213.97-25.63 214.56-25.39L214.56-25.39 213.38-20.53Q212.8-20.68 212.28-20.76 211.77-20.85 210.97-20.85L210.97-20.85Q209.45-20.85 207.78-19.65 206.11-18.46 204.96-15.53L204.96-15.53 204.96 0ZM240.11 0L234.4 0 234.4-25.27 240.11-25.27 240.11 0ZM237.3-29.79L237.3-29.79Q235.77-29.79 234.81-30.7 233.86-31.62 233.86-33.13L233.86-33.13Q233.86-34.57 234.81-35.47 235.77-36.38 237.3-36.38L237.3-36.38Q238.84-36.38 239.79-35.47 240.75-34.57 240.75-33.13L240.75-33.13Q240.75-31.62 239.79-30.7 238.84-29.79 237.3-29.79ZM256.59 0.61L256.59 0.61Q251.88 0.61 249.06-2.87 246.24-6.35 246.24-12.62L246.24-12.62Q246.24-16.72 247.75-19.7 249.26-22.68 251.72-24.29 254.17-25.9 256.95-25.9L256.95-25.9Q259.08-25.9 260.62-25.15 262.16-24.39 263.64-23.1L263.64-23.1 263.45-27.17 263.45-36.43 269.14-36.43 269.14 0 264.45 0 264.04-2.78 263.86-2.78Q262.42-1.34 260.54-0.37 258.66 0.61 256.59 0.61ZM258-4.08L258-4.08Q260.91-4.08 263.45-7.01L263.45-7.01 263.45-18.99Q262.08-20.19 260.76-20.7 259.45-21.22 258.13-21.22L258.13-21.22Q255.64-21.22 253.84-18.95 252.05-16.67 252.05-12.65L252.05-12.65Q252.05-8.47 253.61-6.27 255.17-4.08 258-4.08ZM287.47 0.61L287.47 0.61Q284 0.61 281.2-0.96 278.39-2.54 276.73-5.49 275.07-8.45 275.07-12.62L275.07-12.62Q275.07-16.72 276.74-19.7 278.41-22.68 281.07-24.29 283.73-25.9 286.69-25.9L286.69-25.9Q291.74-25.9 294.4-22.57 297.06-19.24 297.06-13.89L297.06-13.89Q297.06-13.09 296.99-12.33 296.92-11.57 296.82-11.08L296.82-11.08 280.63-11.08Q280.98-7.64 283.03-5.71 285.08-3.78 288.2-3.78L288.2-3.78Q289.89-3.78 291.36-4.25 292.84-4.71 294.23-5.57L294.23-5.57 296.11-2.1Q294.31-0.83 292.11-0.11 289.91 0.61 287.47 0.61ZM280.56-14.97L280.56-14.97 292.13-14.97Q292.13-18.04 290.79-19.76 289.45-21.48 286.81-21.48L286.81-21.48Q284.52-21.48 282.73-19.8 280.95-18.12 280.56-14.97ZM308.9 0.61L308.9 0.61Q305.61 0.61 303.52-1.4 301.43-3.42 301.43-6.74L301.43-6.74Q301.43-10.82 305-13.05 308.56-15.28 316.4-16.14L316.4-16.14Q316.35-18.21 315.35-19.76 314.35-21.31 311.71-21.31L311.71-21.31Q309.78-21.31 307.98-20.59 306.17-19.87 304.53-18.87L304.53-18.87 302.43-22.58Q304.46-23.9 307.1-24.9 309.73-25.9 312.76-25.9L312.76-25.9Q317.47-25.9 319.78-23.07 322.09-20.24 322.09-15.01L322.09-15.01 322.09 0 317.4 0 316.98-2.83 316.81-2.83Q315.1-1.37 313.13-0.38 311.15 0.61 308.9 0.61ZM310.71-3.86L310.71-3.86Q312.27-3.86 313.6-4.58 314.93-5.3 316.4-6.67L316.4-6.67 316.4-12.57Q311.05-11.87 308.99-10.52 306.93-9.18 306.93-7.2L306.93-7.2Q306.93-5.44 307.99-4.65 309.05-3.86 310.71-3.86ZM334.88 0.61L334.88 0.61Q331.85 0.61 330.57-1.23 329.29-3.08 329.29-6.3L329.29-6.3 329.29-36.43 335-36.43 335-6.01Q335-4.86 335.4-4.43 335.8-4 336.29-4L336.29-4Q336.49-4 336.68-4.02 336.88-4.03 337.2-4.1L337.2-4.1 337.9 0.1Q337.37 0.32 336.61 0.46 335.85 0.61 334.88 0.61ZM364.93 0L359.21 0 359.21-36.43 364.93-36.43 364.93-26.95 364.68-22.02Q366.32-23.56 368.28-24.73 370.25-25.9 372.84-25.9L372.84-25.9Q376.86-25.9 378.72-23.28 380.58-20.65 380.58-15.87L380.58-15.87 380.58 0 374.91 0 374.91-15.16Q374.91-18.31 373.95-19.67 372.98-21.02 370.83-21.02L370.83-21.02Q369.15-21.02 367.84-20.17 366.54-19.31 364.93-17.72L364.93-17.72 364.93 0ZM398.15 0.61L398.15 0.61Q395 0.61 392.28-0.94 389.56-2.49 387.87-5.46 386.19-8.42 386.19-12.62L386.19-12.62Q386.19-16.82 387.87-19.79 389.56-22.75 392.28-24.33 395-25.9 398.15-25.9L398.15-25.9Q401.3-25.9 404.03-24.33 406.77-22.75 408.45-19.79 410.14-16.82 410.14-12.62L410.14-12.62Q410.14-8.42 408.45-5.46 406.77-2.49 404.03-0.94 401.3 0.61 398.15 0.61ZM398.15-4L398.15-4Q401.01-4 402.66-6.37 404.3-8.74 404.3-12.62L404.3-12.62Q404.3-16.5 402.66-18.87 401.01-21.24 398.15-21.24L398.15-21.24Q395.29-21.24 393.67-18.87 392.05-16.5 392.05-12.62L392.05-12.62Q392.05-8.74 393.67-6.37 395.29-4 398.15-4ZM421.83 0L416.12 0 416.12-25.27 420.8-25.27 421.27-21.78 421.39-21.78Q423.03-23.49 424.93-24.69 426.83-25.9 429.2-25.9L429.2-25.9Q431.96-25.9 433.63-24.68 435.31-23.46 436.14-21.34L436.14-21.34Q437.97-23.27 439.95-24.58 441.92-25.9 444.32-25.9L444.32-25.9Q448.27-25.9 450.19-23.28 452.1-20.65 452.1-15.87L452.1-15.87 452.1 0 446.41 0 446.41-15.16Q446.41-18.31 445.44-19.67 444.46-21.02 442.41-21.02L442.41-21.02Q439.97-21.02 436.97-17.72L436.97-17.72 436.97 0 431.25 0 431.25-15.16Q431.25-18.31 430.29-19.67 429.33-21.02 427.27-21.02L427.27-21.02Q424.78-21.02 421.83-17.72L421.83-17.72 421.83 0ZM470.17 0.61L470.17 0.61Q466.7 0.61 463.89-0.96 461.09-2.54 459.43-5.49 457.77-8.45 457.77-12.62L457.77-12.62Q457.77-16.72 459.44-19.7 461.11-22.68 463.77-24.29 466.43-25.9 469.39-25.9L469.39-25.9Q474.44-25.9 477.1-22.57 479.76-19.24 479.76-13.89L479.76-13.89Q479.76-13.09 479.69-12.33 479.62-11.57 479.52-11.08L479.52-11.08 463.33-11.08Q463.67-7.64 465.72-5.71 467.77-3.78 470.9-3.78L470.9-3.78Q472.58-3.78 474.06-4.25 475.54-4.71 476.93-5.57L476.93-5.57 478.81-2.1Q477-0.83 474.81-0.11 472.61 0.61 470.17 0.61ZM463.26-14.97L463.26-14.97 474.83-14.97Q474.83-18.04 473.49-19.76 472.14-21.48 469.51-21.48L469.51-21.48Q467.21-21.48 465.43-19.8 463.65-18.12 463.26-14.97ZM511.89 0.61L511.89 0.61Q508.74 0.61 506.01-0.94 503.29-2.49 501.61-5.46 499.92-8.42 499.92-12.62L499.92-12.62Q499.92-16.82 501.61-19.79 503.29-22.75 506.01-24.33 508.74-25.9 511.89-25.9L511.89-25.9Q515.04-25.9 517.77-24.33 520.5-22.75 522.19-19.79 523.87-16.82 523.87-12.62L523.87-12.62Q523.87-8.42 522.19-5.46 520.5-2.49 517.77-0.94 515.04 0.61 511.89 0.61ZM511.89-4L511.89-4Q514.74-4 516.39-6.37 518.04-8.74 518.04-12.62L518.04-12.62Q518.04-16.5 516.39-18.87 514.74-21.24 511.89-21.24L511.89-21.24Q509.03-21.24 507.41-18.87 505.78-16.5 505.78-12.62L505.78-12.62Q505.78-8.74 507.41-6.37 509.03-4 511.89-4ZM535.57 0L529.85 0 529.85-25.27 534.54-25.27 535-20.78 535.13-20.78Q536.49-23.22 538.38-24.56 540.28-25.9 542.33-25.9L542.33-25.9Q543.26-25.9 543.91-25.77 544.57-25.63 545.16-25.39L545.16-25.39 543.99-20.53Q543.4-20.68 542.89-20.76 542.38-20.85 541.57-20.85L541.57-20.85Q540.06-20.85 538.38-19.65 536.71-18.46 535.57-15.53L535.57-15.53 535.57 0ZM572.01 0.61L572.01 0.61Q569.35 0.61 566.82-0.34 564.3-1.29 562.49-3.05L562.49-3.05 565-6.3Q568.23-3.69 572.18-3.69L572.18-3.69Q574.28-3.69 575.32-4.59 576.36-5.49 576.36-6.86L576.36-6.86Q576.36-8.47 574.73-9.34 573.11-10.21 570.98-10.96L570.98-10.96Q569.15-11.65 567.53-12.6 565.91-13.55 564.91-14.97 563.9-16.38 563.9-18.41L563.9-18.41Q563.9-21.63 566.32-23.77 568.74-25.9 572.99-25.9L572.99-25.9Q575.55-25.9 577.66-25.04 579.77-24.17 581.31-22.88L581.31-22.88 578.85-19.63Q576.14-21.58 573.13-21.58L573.13-21.58Q571.13-21.58 570.2-20.72 569.28-19.85 569.28-18.68L569.28-18.68Q569.28-17.21 570.62-16.46 571.96-15.7 574.31-14.87L574.31-14.87Q576.26-14.18 577.96-13.24 579.65-12.3 580.7-10.84 581.75-9.38 581.75-7.15L581.75-7.15Q581.75-3.93 579.25-1.66 576.75 0.61 572.01 0.61ZM597.86 0.61L597.86 0.61Q594.4 0.61 591.59-0.96 588.78-2.54 587.12-5.49 585.46-8.45 585.46-12.62L585.46-12.62Q585.46-16.72 587.13-19.7 588.8-22.68 591.47-24.29 594.13-25.9 597.08-25.9L597.08-25.9Q602.13-25.9 604.8-22.57 607.46-19.24 607.46-13.89L607.46-13.89Q607.46-13.09 607.38-12.33 607.31-11.57 607.21-11.08L607.21-11.08 591.03-11.08Q591.37-7.64 593.42-5.71 595.47-3.78 598.59-3.78L598.59-3.78Q600.28-3.78 601.76-4.25 603.23-4.71 604.62-5.57L604.62-5.57 606.5-2.1Q604.7-0.83 602.5-0.11 600.3 0.61 597.86 0.61ZM590.95-14.97L590.95-14.97 602.53-14.97Q602.53-18.04 601.18-19.76 599.84-21.48 597.2-21.48L597.2-21.48Q594.91-21.48 593.13-19.8 591.34-18.12 590.95-14.97ZM618.78 0.61L618.78 0.61Q615.76 0.61 614.47-1.23 613.19-3.08 613.19-6.3L613.19-6.3 613.19-36.43 618.9-36.43 618.9-6.01Q618.9-4.86 619.31-4.43 619.71-4 620.2-4L620.2-4Q620.39-4 620.59-4.02 620.78-4.03 621.1-4.1L621.1-4.1 621.81 0.1Q621.27 0.32 620.52 0.46 619.76 0.61 618.78 0.61ZM632.6 0.61L632.6 0.61Q629.57 0.61 628.29-1.23 627.01-3.08 627.01-6.3L627.01-6.3 627.01-36.43 632.72-36.43 632.72-6.01Q632.72-4.86 633.12-4.43 633.53-4 634.01-4L634.01-4Q634.21-4 634.41-4.02 634.6-4.03 634.92-4.1L634.92-4.1 635.63 0.1Q635.09 0.32 634.33 0.46 633.58 0.61 632.6 0.61ZM667.65 0L661.08 0 654.35-25.27 660.06-25.27 663.23-11.96Q663.62-10.11 663.93-8.33 664.23-6.54 664.58-4.69L664.58-4.69 664.8-4.69Q665.16-6.54 665.55-8.36 665.94-10.18 666.43-11.96L666.43-11.96 669.8-25.27 675.03-25.27 678.44-11.96Q678.91-10.11 679.31-8.33 679.71-6.54 680.15-4.69L680.15-4.69 680.35-4.69Q680.71-6.54 681.04-8.33 681.37-10.11 681.76-11.96L681.76-11.96 684.86-25.27 690.19-25.27 683.72 0 676.95 0 673.93-12.06Q673.49-13.82 673.12-15.61 672.75-17.41 672.34-19.38L672.34-19.38 672.14-19.38Q671.78-17.41 671.41-15.6 671.05-13.79 670.58-12.04L670.58-12.04 667.65 0ZM700.93 0L695.21 0 695.21-25.27 700.93-25.27 700.93 0ZM698.12-29.79L698.12-29.79Q696.58-29.79 695.63-30.7 694.68-31.62 694.68-33.13L694.68-33.13Q694.68-34.57 695.63-35.47 696.58-36.38 698.12-36.38L698.12-36.38Q699.66-36.38 700.61-35.47 701.56-34.57 701.56-33.13L701.56-33.13Q701.56-31.62 700.61-30.7 699.66-29.79 698.12-29.79ZM717.35 0.61L717.35 0.61Q713.01 0.61 711.24-1.88 709.47-4.37 709.47-8.42L709.47-8.42 709.47-20.7 705.86-20.7 705.86-25.02 709.79-25.27 710.44-33.23 715.16-33.23 715.16-25.27 721.68-25.27 721.68-20.7 715.16-20.7 715.16-8.42Q715.16-3.91 718.79-3.91L718.79-3.91Q719.43-3.91 720.1-4.03 720.77-4.15 721.43-4.42L721.43-4.42 722.51-0.42Q721.48-0.02 720.16 0.29 718.84 0.61 717.35 0.61ZM732.73 0L727.02 0 727.02-36.43 732.73-36.43 732.73-26.95 732.49-22.02Q734.12-23.56 736.09-24.73 738.05-25.9 740.64-25.9L740.64-25.9Q744.67-25.9 746.53-23.28 748.38-20.65 748.38-15.87L748.38-15.87 748.38 0 742.72 0 742.72-15.16Q742.72-18.31 741.75-19.67 740.79-21.02 738.64-21.02L738.64-21.02Q736.96-21.02 735.65-20.17 734.34-19.31 732.73-17.72L732.73-17.72 732.73 0ZM782.51 0.61L782.51 0.61Q779.04 0.61 776.23-0.96 773.43-2.54 771.77-5.49 770.11-8.45 770.11-12.62L770.11-12.62Q770.11-16.72 771.78-19.7 773.45-22.68 776.11-24.29 778.77-25.9 781.73-25.9L781.73-25.9Q786.78-25.9 789.44-22.57 792.1-19.24 792.1-13.89L792.1-13.89Q792.1-13.09 792.03-12.33 791.96-11.57 791.86-11.08L791.86-11.08 775.67-11.08Q776.01-7.64 778.06-5.71 780.12-3.78 783.24-3.78L783.24-3.78Q784.92-3.78 786.4-4.25 787.88-4.71 789.27-5.57L789.27-5.57 791.15-2.1Q789.34-0.83 787.15-0.11 784.95 0.61 782.51 0.61ZM775.6-14.97L775.6-14.97 787.17-14.97Q787.17-18.04 785.83-19.76 784.49-21.48 781.85-21.48L781.85-21.48Q779.55-21.48 777.77-19.8 775.99-18.12 775.6-14.97ZM803.94 0.61L803.94 0.61Q800.64 0.61 798.56-1.4 796.47-3.42 796.47-6.74L796.47-6.74Q796.47-10.82 800.03-13.05 803.6-15.28 811.44-16.14L811.44-16.14Q811.39-18.21 810.39-19.76 809.39-21.31 806.75-21.31L806.75-21.31Q804.82-21.31 803.01-20.59 801.21-19.87 799.57-18.87L799.57-18.87 797.47-22.58Q799.5-23.9 802.13-24.9 804.77-25.9 807.8-25.9L807.8-25.9Q812.51-25.9 814.82-23.07 817.12-20.24 817.12-15.01L817.12-15.01 817.12 0 812.44 0 812.02-2.83 811.85-2.83Q810.14-1.37 808.16-0.38 806.19 0.61 803.94 0.61ZM805.75-3.86L805.75-3.86Q807.31-3.86 808.64-4.58 809.97-5.3 811.44-6.67L811.44-6.67 811.44-12.57Q806.09-11.87 804.03-10.52 801.96-9.18 801.96-7.2L801.96-7.2Q801.96-5.44 803.03-4.65 804.09-3.86 805.75-3.86ZM831.33 0.61L831.33 0.61Q828.67 0.61 826.14-0.34 823.62-1.29 821.81-3.05L821.81-3.05 824.32-6.3Q827.55-3.69 831.5-3.69L831.5-3.69Q833.6-3.69 834.64-4.59 835.68-5.49 835.68-6.86L835.68-6.86Q835.68-8.47 834.05-9.34 832.43-10.21 830.31-10.96L830.31-10.96Q828.47-11.65 826.85-12.6 825.23-13.55 824.23-14.97 823.23-16.38 823.23-18.41L823.23-18.41Q823.23-21.63 825.64-23.77 828.06-25.9 832.31-25.9L832.31-25.9Q834.87-25.9 836.98-25.04 839.09-24.17 840.63-22.88L840.63-22.88 838.17-19.63Q835.46-21.58 832.45-21.58L832.45-21.58Q830.45-21.58 829.52-20.72 828.6-19.85 828.6-18.68L828.6-18.68Q828.6-17.21 829.94-16.46 831.28-15.7 833.63-14.87L833.63-14.87Q835.58-14.18 837.28-13.24 838.97-12.3 840.02-10.84 841.07-9.38 841.07-7.15L841.07-7.15Q841.07-3.93 838.57-1.66 836.07 0.61 831.33 0.61ZM857.18 0.61L857.18 0.61Q853.72 0.61 850.91-0.96 848.1-2.54 846.44-5.49 844.78-8.45 844.78-12.62L844.78-12.62Q844.78-16.72 846.45-19.7 848.13-22.68 850.79-24.29 853.45-25.9 856.4-25.9L856.4-25.9Q861.46-25.9 864.12-22.57 866.78-19.24 866.78-13.89L866.78-13.89Q866.78-13.09 866.7-12.33 866.63-11.57 866.53-11.08L866.53-11.08 850.35-11.08Q850.69-7.64 852.74-5.71 854.79-3.78 857.92-3.78L857.92-3.78Q859.6-3.78 861.08-4.25 862.55-4.71 863.95-5.57L863.95-5.57 865.83-2.1Q864.02-0.83 861.82-0.11 859.62 0.61 857.18 0.61ZM850.27-14.97L850.27-14.97 861.85-14.97Q861.85-18.04 860.5-19.76 859.16-21.48 856.52-21.48L856.52-21.48Q854.23-21.48 852.45-19.8 850.66-18.12 850.27-14.97Z" opacity="1" transform="matrix(1,0,0,1,0,0)" fill="#333333" class="slogan-text-1" data-fill-palette-color="secondary" id="text-1"></path></svg></g></svg></g></svg></g></svg></g><g transform="matrix(1,0,0,1,0,0.2778458973610469)"><svg viewBox="0 0 146.12749653415298 111.13835894441804" height="111.13835894441804" width="146.12749653415298"><g><svg xmlns="http://www.w3.org/2000/svg" xmlns:xlink="http://www.w3.org/1999/xlink" version="1.1" x="0" y="0" viewBox="9.664486227094397 24.962 124.7505991886592 94.87999999999998" enable-background="new 0 0 144.083 144" xml:space="preserve" height="111.13835894441804" width="146.12749653415298" class="icon-icon-0" data-fill-palette-color="accent" id="icon-0"><path d="M134.381 66.643l-6-27.554c-0.15-0.689-0.762-1.181-1.467-1.181h-8.424V26.462c0-0.828-0.672-1.5-1.5-1.5h-10.643c-0.828 0-1.5 0.672-1.5 1.5v11.446H39.232V26.462c0-0.828-0.672-1.5-1.5-1.5H27.09c-0.828 0-1.5 0.672-1.5 1.5v11.446h-8.425c-0.705 0-1.315 0.491-1.466 1.181l-6 27.554c-0.097 0.443 0.013 0.907 0.298 1.261 0.284 0.354 0.714 0.559 1.168 0.559h6.941v49.879c0 0.828 0.672 1.5 1.5 1.5H47.18h15.448 18.824H96.5h27.973c0.828 0 1.5-0.672 1.5-1.5V68.462h6.941c0.455 0 0.885-0.205 1.168-0.559C134.368 67.55 134.477 67.086 134.381 66.643zM107.848 27.962h7.643v9.946h-7.643V27.962zM28.59 27.962h7.643v9.946H28.59V27.962zM45.68 116.841H21.106V68.462H45.68V116.841zM70.541 116.841h-7.602V97.813c0-4.507 3.296-8.249 7.602-8.967V116.841zM81.141 116.841h-7.6V88.847c4.305 0.719 7.6 4.46 7.6 8.967V116.841zM95 116.841H84.141V97.813c0-6.673-5.428-12.102-12.1-12.102-6.673 0-12.102 5.429-12.102 12.102v19.027H48.68V73.879h7.649c0.394 0 0.771-0.154 1.052-0.431l14.611-14.376 14.295 14.364c0.281 0.283 0.664 0.442 1.063 0.442H95V116.841zM95 70.879h-7.027L73.067 55.899c-0.583-0.586-1.528-0.59-2.116-0.012L55.715 70.879H48.68v-2.322l23.408-23.033L95 68.547V70.879zM122.973 116.841H98V68.462h24.973V116.841zM96.163 65.462l-23-23.111c-0.582-0.587-1.528-0.589-2.116-0.012l-23.5 23.123H13.026l5.348-24.554h8.716 10.643 68.616 10.643 8.715l5.348 24.554H96.163z" fill="#57a2ed" data-fill-palette-color="accent"></path><path d="M27.477 89.795h12.332c0.828 0 1.5-0.672 1.5-1.5V75.962c0-0.828-0.672-1.5-1.5-1.5H27.477c-0.828 0-1.5 0.672-1.5 1.5v12.333C25.977 89.123 26.648 89.795 27.477 89.795zM28.977 77.462h9.332v9.333h-9.332V77.462z" fill="#57a2ed" data-fill-palette-color="accent"></path><path d="M27.477 110.952h12.332c0.828 0 1.5-0.672 1.5-1.5V97.119c0-0.828-0.672-1.5-1.5-1.5H27.477c-0.828 0-1.5 0.672-1.5 1.5v12.333C25.977 110.28 26.648 110.952 27.477 110.952zM28.977 98.619h9.332v9.333h-9.332V98.619z" fill="#57a2ed" data-fill-palette-color="accent"></path><path d="M104.272 89.795h12.332c0.828 0 1.5-0.672 1.5-1.5V75.962c0-0.828-0.672-1.5-1.5-1.5h-12.332c-0.828 0-1.5 0.672-1.5 1.5v12.333C102.772 89.123 103.444 89.795 104.272 89.795zM105.772 77.462h9.332v9.333h-9.332V77.462z" fill="#57a2ed" data-fill-palette-color="accent"></path><path d="M104.272 110.952h12.332c0.828 0 1.5-0.672 1.5-1.5V97.119c0-0.828-0.672-1.5-1.5-1.5h-12.332c-0.828 0-1.5 0.672-1.5 1.5v12.333C102.772 110.28 103.444 110.952 104.272 110.952zM105.772 98.619h9.332v9.333h-9.332V98.619z" fill="#57a2ed" data-fill-palette-color="accent"></path></svg></g></svg></g></svg></g><defs></defs></svg><rect width="395.52" height="75.78629141778798" fill="none" stroke="none" visibility="hidden"></rect></g></svg></g></svg>