<?xml version="1.0" encoding="utf-8"?>
<!-- Generator: Adobe Illustrator 27.7.0, SVG Export Plug-In . SVG Version: 6.00 Build 0)  -->
<svg version="1.1" id="icon-0" xmlns:svgjs="http://svgjs.dev/svgjs"
	 xmlns="http://www.w3.org/2000/svg" xmlns:xlink="http://www.w3.org/1999/xlink" x="0px" y="0px" viewBox="0 0 1208.3 240.5"
	 style="enable-background:new 0 0 1208.3 240.5;" xml:space="preserve">
<style type="text/css">
	.st0{fill:#FFFFFF;}
	.st1{display:none;fill:none;}
</style>
<g>
	<path id="qz-0" class="st0" d="M292.6,23.9L292.6,23.9c3.1,0,5.7,4.5,5.7,10v170.9c0,5.5-2.5,10-5.7,10l0,0c-3.1,0-5.7-4.5-5.7-10
		V33.8C286.9,28.3,289.5,23.9,292.6,23.9z"/>
</g>
<g id="textblocktransform">
	<g>
		<g transform="matrix(1,0,0,1,0,0)">
			<path id="text-0" class="st0" d="M334.5,54.3l30.3-5.3l-3,92.8l2.6,55.5h-29.9l2.6-51.9L334.5,54.3z M456.2,143.3
				c0-9.8-0.9-16.4-2.6-19.6c-1.7-3.3-5.7-4.9-12-4.9s-13.4,2.5-21.3,7.5l0,0v15.6l2.3,50.2l-28.6,5.3l2.6-51.9
				c-0.6-19.1-2.1-36.1-4.7-51.2l0,0l25.8-5.5c1,8.3,1.7,16.3,2.1,24.1l0,0c2.1-2.8,4.6-5.7,7.3-8.5c2.7-2.8,7-5.9,12.8-9.4
				c5.8-3.5,11.7-5.2,17.7-5.2c6,0,11,1.9,15.2,5.8s6.8,9.1,7.9,15.8l0,0c11.8-14.4,23.8-21.6,35.9-21.6l0,0
				c7.5,0,13.5,2.5,17.9,7.6c4.4,5.1,6.6,11.9,6.6,20.6l0,0l-1.3,23.9l2.3,51.2l-28.8,5.3l2.6-55.1c0-9.8-0.9-16.4-2.6-19.6
				c-1.7-3.3-5.6-4.9-11.7-4.9s-13,2.3-20.7,7l0,0l-0.9,16l2.3,51.2l-28.8,5.3L456.2,143.3z M627.6,143.3c0-9.8-0.9-16.4-2.6-19.6
				c-1.7-3.3-5.7-4.9-12-4.9c-6.3,0-13.4,2.5-21.3,7.5l0,0v15.6l2.3,50.2l-28.6,5.3l2.6-51.9c-0.6-19.1-2.1-36.1-4.7-51.2l0,0
				l25.8-5.5c1,8.3,1.7,16.3,2.1,24.1l0,0c2.1-2.8,4.6-5.7,7.3-8.5c2.7-2.8,7-5.9,12.8-9.4c5.8-3.5,11.7-5.2,17.7-5.2
				c6,0,11,1.9,15.2,5.8c4.1,3.8,6.8,9.1,7.9,15.8l0,0c11.8-14.4,23.8-21.6,35.9-21.6l0,0c7.5,0,13.5,2.5,17.9,7.6
				c4.4,5.1,6.6,11.9,6.6,20.6l0,0l-1.3,23.9l2.3,51.2l-28.8,5.3l2.6-55.1c0-9.8-0.9-16.4-2.6-19.6s-5.6-4.9-11.7-4.9
				c-6.1,0-13,2.3-20.7,7l0,0l-0.9,16l2.3,51.2l-28.8,5.3L627.6,143.3z M730.6,152.7c0-18.2,4.9-33.7,14.7-46.3
				c9.8-12.7,21.3-19,34.5-19c13.1,0,23.4,4.3,30.7,12.8c7.3,8.5,11,19.9,11,33.9l0,0c0,18.8-4.7,34.4-14.2,46.8
				c-9.5,12.5-21.4,18.7-35.8,18.7l0,0c-11.8,0-21.6-4.5-29.3-13.4C734.5,177.4,730.6,166.2,730.6,152.7L730.6,152.7z M797.7,145.2
				L797.7,145.2c0-20.6-7-30.9-21.1-30.9l0,0c-14.7,0-22,9.7-22,29l0,0c0,10.1,2.1,18,6.2,23.7s9.6,8.5,16.3,8.5
				c6.7,0,11.9-2.6,15.4-7.8C795.9,162.5,797.7,155,797.7,145.2z M890.1,199.6L890.1,199.6c-15.8,0-29.1-6.6-39.9-19.9
				c-10.8-13.2-16.2-29.5-16.2-48.7l0,0c0-23.5,6.5-43.3,19.6-59.3c13-16.1,29-24.1,47.9-24.1l0,0c7.4,0,14.3,0.8,20.6,2.3
				c6.3,1.5,10.8,3,13.5,4.6l0,0l3.8,2.3l-14.5,29.7c-3.3-2.8-7.9-5.5-13.9-8c-6-2.5-11.4-3.7-16.2-3.7l0,0
				c-9.8,0-17.7,4.1-23.6,12.2c-5.9,8.1-8.9,19.7-8.9,34.7c0,15,3.1,27.3,9.2,36.9c6.1,9.6,14.4,14.4,25,14.4l0,0
				c6.8,0,13-2.1,18.6-6.4c5.5-4.3,9.5-10,11.7-17.1l0,0l17.7,10.2c-4.7,12.5-11.9,22.3-21.6,29.3
				C913.3,196.1,902.3,199.6,890.1,199.6z M951.1,152.7c0-18.2,4.9-33.7,14.7-46.3s21.3-19,34.5-19c13.2,0,23.4,4.3,30.7,12.8
				c7.3,8.5,11,19.9,11,33.9l0,0c0,18.8-4.7,34.4-14.2,46.8c-9.4,12.5-21.4,18.7-35.7,18.7l0,0c-11.8,0-21.6-4.5-29.4-13.4
				C955,177.4,951.1,166.2,951.1,152.7L951.1,152.7z M1018.1,145.2L1018.1,145.2c0-20.6-7-30.9-21.1-30.9l0,0c-14.7,0-22,9.7-22,29
				l0,0c0,10.1,2.1,18,6.2,23.7c4.1,5.7,9.6,8.5,16.3,8.5c6.8,0,11.9-2.6,15.4-7.8C1016.4,162.5,1018.1,155,1018.1,145.2z
				 M1060.4,94l28.6-5.3l-2.6,53.1l2.3,50.2l-28.6,5.3l2.6-51.9L1060.4,94z M1058.9,57.4c0-4.8,1.8-9.1,5.5-12.8
				c3.7-3.8,8-5.7,12.8-5.7c4.8,0,8.5,1.3,11.1,3.9c2.6,2.6,3.8,6.6,3.8,11.9s-1.8,9.8-5.5,13.5c-3.6,3.8-7.8,5.7-12.6,5.7
				c-4.8,0-8.5-1.6-11.2-4.7C1060.3,66.1,1058.9,62.1,1058.9,57.4z M1174.3,143.3c0-9.8-0.9-16.4-2.6-19.6s-5.7-4.9-12-4.9
				c-6.3,0-13.4,2.5-21.3,7.5l0,0v15.6l2.3,50.2l-28.6,5.3l2.6-51.9c-0.6-19.1-2.1-36.1-4.7-51.2l0,0l25.8-5.5
				c1,8.3,1.7,16.3,2.1,24.1l0,0c2.1-2.8,4.6-5.7,7.3-8.5c2.7-2.8,7-5.9,12.8-9.4c5.8-3.5,12-5.2,18.5-5.2c6.5,0,11.9,2.5,16.3,7.6
				c4.4,5.1,6.6,11.9,6.6,20.6l0,0l-1.3,23.9l2.3,51.2l-28.8,5.3L1174.3,143.3z"/>
		</g>
	</g>
</g>
<g transform="matrix(1,0,0,1,0,0.2778458973610469)">
	<g>
		<path class="st0" d="M257.3,107.5l-12-55.1c-0.3-1.4-1.5-2.4-2.9-2.4h-16.9V27.1c0-1.7-1.3-3-3-3h-21.3c-1.7,0-3,1.3-3,3V50H66.9
			V27.1c0-1.7-1.3-3-3-3H42.6c-1.7,0-3,1.3-3,3V50H22.7c-1.4,0-2.6,1-2.9,2.4l-12,55.1c-0.2,0.9,0,1.8,0.6,2.5
			c0.6,0.7,1.4,1.1,2.3,1.1h13.9v99.8c0,1.7,1.3,3,3,3h55.2h30.9h37.7h30.1h56c1.7,0,3-1.3,3-3v-99.8h13.9c0.9,0,1.8-0.4,2.3-1.1
			C257.2,109.3,257.5,108.4,257.3,107.5z M204.2,30.1h15.3V50h-15.3V30.1z M45.6,30.1h15.3V50H45.6V30.1z M79.8,207.9H30.6v-96.8
			h49.2V207.9z M129.5,207.9h-15.2v-38.1c0-9,6.6-16.5,15.2-17.9V207.9z M150.7,207.9h-15.2v-56c8.6,1.4,15.2,8.9,15.2,17.9V207.9z
			 M178.5,207.9h-21.7v-38.1c0-13.4-10.9-24.2-24.2-24.2c-13.4,0-24.2,10.9-24.2,24.2v38.1H85.8v-86h15.3c0.8,0,1.5-0.3,2.1-0.9
			l29.2-28.8l28.6,28.7c0.6,0.6,1.3,0.9,2.1,0.9h15.3V207.9z M178.5,116h-14.1l-29.8-30c-1.2-1.2-3.1-1.2-4.2,0l-30.5,30H85.8v-4.6
			l46.8-46.1l45.8,46.1V116z M234.4,207.9h-50v-96.8h50V207.9z M180.8,105.1l-46-46.2c-1.2-1.2-3.1-1.2-4.2,0l-47,46.3H14.4L25.1,56
			h17.4h21.3h137.3h21.3h17.4l10.7,49.1H180.8z"/>
		<path class="st0" d="M43.4,153.8H68c1.7,0,3-1.3,3-3v-24.7c0-1.7-1.3-3-3-3H43.4c-1.7,0-3,1.3-3,3v24.7
			C40.4,152.5,41.7,153.8,43.4,153.8z M46.4,129.1H65v18.7H46.4C46.4,147.8,46.4,129.1,46.4,129.1z"/>
		<path class="st0" d="M43.4,196.1H68c1.7,0,3-1.3,3-3v-24.7c0-1.7-1.3-3-3-3H43.4c-1.7,0-3,1.3-3,3v24.7
			C40.4,194.8,41.7,196.1,43.4,196.1z M46.4,171.5H65v18.7H46.4C46.4,190.1,46.4,171.5,46.4,171.5z"/>
		<path class="st0" d="M197,153.8h24.7c1.7,0,3-1.3,3-3v-24.7c0-1.7-1.3-3-3-3H197c-1.7,0-3,1.3-3,3v24.7
			C194,152.5,195.4,153.8,197,153.8z M200,129.1h18.7v18.7H200V129.1z"/>
		<path class="st0" d="M197,196.1h24.7c1.7,0,3-1.3,3-3v-24.7c0-1.7-1.3-3-3-3H197c-1.7,0-3,1.3-3,3v24.7
			C194,194.8,195.4,196.1,197,196.1z M200,171.5h18.7v18.7H200V171.5z"/>
	</g>
</g>
<rect x="15.4" y="24.9" class="st1" width="995.7" height="190.8"/>
</svg>
